<?xml version="1.0" standalone="no"?>
<!DOCTYPE svg PUBLIC "-//W3C//DTD SVG 20010904//EN"
 "http://www.w3.org/TR/2001/REC-SVG-20010904/DTD/svg10.dtd">
<svg version="1.0" xmlns="http://www.w3.org/2000/svg"
 width="1024.000000pt" height="1536.000000pt" viewBox="0 0 1024.000000 1536.000000"
 preserveAspectRatio="xMidYMid meet">
<metadata>
Created by potrace 1.16, written by Peter Selinger 2001-2019
</metadata>
<g transform="translate(0.000000,1536.000000) scale(0.100000,-0.100000)"
fill="#000000" stroke="none">
<path d="M0 7680 l0 -7680 5120 0 5120 0 0 7680 0 7680 -5120 0 -5120 0 0
-7680z m5551 2604 c16 -14 15 -74 -2 -74 -13 0 -24 23 -21 47 2 11 -1 24 -6
27 -18 11 -4 -85 14 -98 9 -7 14 -18 10 -24 -3 -6 -2 -14 4 -17 6 -4 8 -14 6
-23 -7 -23 10 -50 23 -37 5 6 11 19 14 30 3 13 5 9 6 -12 1 -35 21 -47 21 -13
0 24 15 27 24 4 3 -9 11 -14 18 -12 12 4 48 -21 48 -33 0 -4 -30 -15 -67 -24
-51 -14 -76 -26 -99 -52 -24 -26 -39 -33 -67 -33 -43 0 -48 -16 -10 -31 14 -5
32 -17 39 -27 8 -9 14 -13 14 -8 0 5 9 1 19 -8 16 -15 18 -23 10 -44 -6 -14
-9 -42 -7 -60 3 -34 2 -35 -45 -47 -59 -15 -75 -29 -83 -75 l-6 -35 26 28 c15
15 33 27 42 27 32 0 105 -83 146 -167 36 -75 40 -90 35 -134 -5 -36 -3 -49 7
-49 7 0 13 -12 13 -28 0 -18 10 -39 29 -58 49 -49 62 -82 57 -149 -6 -70 -25
-112 -58 -127 -14 -6 -25 -17 -25 -25 0 -7 -4 -13 -10 -13 -5 0 -18 -9 -29
-21 -11 -13 -24 -18 -32 -14 -8 5 -10 4 -5 -3 4 -7 1 -12 -8 -12 -9 0 -29 -18
-45 -40 -26 -36 -30 -39 -36 -21 -9 29 -58 61 -93 61 -54 0 -153 -53 -203
-109 -44 -48 -49 -51 -74 -41 -32 12 -38 9 -30 -13 10 -24 61 -40 110 -35 53
6 80 24 65 43 -16 20 30 45 110 60 19 4 43 15 54 24 18 15 18 15 12 -15 -8
-35 2 -41 100 -65 48 -11 124 -6 124 9 0 4 18 13 39 19 39 13 101 8 101 -7 0
-10 -56 -30 -81 -30 -27 0 -34 -20 -10 -27 13 -3 21 -13 21 -26 0 -18 4 -19
61 -13 34 3 72 6 85 6 13 0 34 10 48 23 21 18 27 36 35 111 8 62 8 92 0 96 -6
4 -4 11 5 20 11 9 29 10 63 4 51 -8 50 -8 73 -16 28 -11 218 -43 320 -54 74
-9 134 -32 171 -68 61 -60 88 -105 54 -92 -8 3 -15 1 -15 -4 0 -6 4 -10 8 -10
11 0 9 -23 -7 -77 -9 -33 -15 -41 -29 -36 -14 5 -15 3 -4 -8 19 -21 14 -45
-18 -79 -17 -18 -33 -43 -36 -56 -4 -13 -11 -21 -17 -17 -6 4 -8 0 -4 -10 3
-9 -1 -33 -9 -52 -8 -20 -12 -40 -9 -45 3 -5 -2 -21 -11 -35 -10 -16 -14 -34
-10 -50 4 -14 1 -35 -6 -48 -7 -12 -12 -38 -13 -57 0 -20 -5 -36 -12 -36 -27
-3 -27 -5 -5 -24 21 -18 23 -48 2 -35 -5 3 -12 -7 -15 -22 -4 -15 -11 -36 -16
-46 -5 -10 -7 -22 -4 -27 3 -6 -5 -21 -19 -34 -14 -13 -26 -30 -26 -39 0 -8
-6 -17 -14 -20 -7 -3 -17 -18 -20 -34 -4 -15 -16 -38 -27 -49 -11 -12 -19 -28
-17 -35 2 -8 -5 -14 -17 -14 -13 0 -21 -8 -23 -23 -2 -16 -14 -27 -33 -34 -16
-5 -29 -14 -29 -19 0 -5 -4 -9 -10 -9 -5 0 -10 7 -10 15 0 20 -30 32 -40 15
-5 -8 -12 -2 -21 18 -7 17 -22 34 -34 37 -11 4 -15 8 -10 11 11 4 12 78 1 112
-4 12 -11 20 -16 17 -10 -6 -1 62 11 87 5 9 9 25 9 35 0 11 27 44 60 74 32 30
59 59 60 65 0 7 9 14 20 17 12 3 20 14 21 29 0 12 2 32 4 43 2 11 -3 33 -11
49 -18 37 -18 46 2 46 8 0 12 5 9 11 -4 6 -13 8 -21 5 -12 -5 -12 -2 -3 15 9
17 8 23 -2 30 -8 5 -10 9 -5 9 5 0 -3 9 -17 20 -14 11 -33 20 -42 20 -9 0 -32
16 -52 35 -20 19 -42 35 -49 35 -21 0 -75 36 -66 45 4 4 -3 2 -16 -4 -33 -18
-133 -4 -130 17 2 9 -8 18 -27 23 -34 10 -41 5 -50 -33 -6 -22 -4 -28 10 -28
9 0 14 -4 11 -9 -6 -9 -40 -17 -120 -26 -21 -3 -41 -7 -45 -10 -4 -2 -45 -7
-91 -10 -61 -4 -102 -14 -151 -35 -37 -17 -74 -30 -82 -30 -8 0 -35 -11 -61
-25 -26 -14 -52 -25 -57 -25 -9 0 -53 -28 -154 -97 -35 -23 -133 -56 -146 -48
-15 10 -39 68 -39 96 0 25 -2 28 -22 20 -13 -5 -39 -7 -58 -5 -25 3 -29 2 -16
-4 17 -7 16 -10 -12 -21 -20 -9 -32 -21 -32 -33 0 -10 -10 -32 -21 -48 -12
-16 -23 -44 -24 -62 -5 -76 -18 -158 -26 -158 -5 0 -9 -7 -9 -16 0 -24 -51
-125 -66 -131 -8 -3 -14 -18 -14 -35 0 -16 -5 -38 -10 -48 -7 -13 -7 -21 0
-25 5 -3 10 -18 10 -33 l0 -27 26 30 c20 24 27 27 34 15 7 -11 14 -8 35 15 30
35 38 44 65 69 15 15 17 22 8 28 -9 5 -10 8 -1 8 6 0 17 15 23 34 6 19 14 36
18 38 4 2 20 30 36 62 l29 60 73 -79 c41 -43 74 -84 74 -92 0 -7 5 -13 10 -13
6 0 10 -7 10 -15 0 -8 4 -15 10 -15 9 0 42 -54 46 -76 7 -38 98 -154 121 -154
7 0 13 -6 13 -13 0 -14 56 -66 74 -68 6 -1 19 0 29 1 10 1 25 -4 34 -12 12
-10 67 -13 240 -12 l223 2 0 -25 c0 -19 3 -22 18 -15 9 5 30 6 46 3 27 -5 30
-10 32 -50 2 -43 -25 -109 -39 -94 -4 3 -7 1 -7 -5 0 -7 -9 -12 -21 -12 -12 0
-19 -5 -17 -12 3 -7 -1 -19 -9 -26 -7 -7 -13 -23 -13 -34 0 -22 -46 -68 -67
-68 -7 0 -13 -4 -13 -9 0 -5 -17 -15 -37 -22 -21 -7 -43 -19 -50 -28 -7 -9
-13 -11 -13 -5 0 22 -30 23 -65 4 -22 -12 -48 -18 -68 -16 -17 2 -37 -1 -44
-6 -7 -6 -35 -8 -63 -6 -27 1 -52 -1 -54 -7 -2 -6 -19 -2 -40 9 -24 13 -40 16
-47 9 -6 -6 -31 -7 -66 -2 -31 4 -61 5 -65 3 -5 -3 -14 -1 -21 4 -7 6 -30 13
-52 17 -52 10 -75 22 -75 40 0 8 -9 15 -20 15 -11 0 -23 6 -26 14 -3 8 -12 12
-20 9 -8 -3 -14 0 -14 6 0 6 -7 11 -15 11 -8 0 -15 5 -15 10 0 6 -6 10 -12 8
-15 -3 -69 30 -81 49 -4 7 -14 10 -22 7 -9 -4 -15 0 -15 9 0 8 6 18 13 20 7 3
5 6 -5 6 -10 1 -18 7 -18 15 0 8 -7 17 -16 20 -8 3 -12 10 -9 16 3 5 1 10 -4
10 -6 0 -11 8 -11 18 0 14 -2 15 -10 2 -8 -12 -10 -12 -16 3 -3 10 -17 17 -31
17 -20 0 -23 4 -18 21 5 14 3 20 -7 18 -26 -4 -78 14 -78 26 0 8 -13 19 -29
26 -29 13 -29 13 -8 24 14 7 22 20 22 37 -1 15 4 26 9 25 6 -1 9 13 7 31 -1
17 2 33 8 33 6 1 16 2 23 3 17 2 30 56 15 61 -18 7 -51 1 -59 -10 -4 -5 -16
-4 -31 4 -20 11 -31 11 -63 0 -45 -16 -69 -40 -51 -51 22 -14 -4 -8 -34 8 -17
8 -33 13 -37 10 -3 -3 0 -6 6 -6 23 0 12 -31 -14 -40 -28 -11 -44 -6 -44 14 0
22 -22 36 -42 25 -12 -6 -18 -6 -18 1 0 5 -9 10 -19 10 -11 0 -23 5 -26 11 -4
5 -17 15 -28 20 -12 5 -33 16 -47 24 -30 17 -41 1 -14 -20 14 -10 15 -14 5
-15 -8 0 -27 14 -43 30 -15 17 -32 30 -38 30 -5 0 -13 7 -18 17 -6 9 -16 14
-25 10 -9 -3 -36 10 -67 33 -29 22 -58 41 -64 44 -8 3 -7 7 2 14 9 6 6 11 -13
20 -14 7 -30 23 -35 37 -6 16 -14 23 -25 19 -11 -5 -15 1 -15 24 0 21 -6 33
-18 36 -16 5 -44 74 -46 113 -1 7 -7 18 -13 24 -9 9 -9 17 -1 32 8 16 7 22 -6
29 -20 11 -21 28 -1 28 8 0 15 3 15 8 -1 26 -15 51 -36 61 -13 6 -24 17 -24
24 0 8 -11 26 -25 40 -14 14 -22 27 -17 29 5 1 12 14 16 28 3 14 3 19 0 13 -8
-19 -22 -16 -35 8 -8 16 -8 23 1 29 9 5 7 13 -7 26 -11 11 -23 27 -26 37 -4
10 -10 16 -15 13 -4 -2 -6 14 -4 36 3 22 -1 51 -8 63 -7 13 -10 31 -6 40 4 12
1 15 -14 13 -10 -2 -19 0 -20 5 -1 30 2 35 25 33 21 -1 25 -6 25 -33 0 -57 15
-36 17 24 1 37 -3 63 -13 77 -15 20 -15 20 -12 -8 2 -17 -2 -31 -10 -33 -10
-4 -12 7 -9 47 4 42 0 62 -19 101 -19 36 -24 58 -19 86 3 25 2 31 -3 19 -7
-15 -12 -6 -27 45 -9 35 -18 87 -19 114 -2 29 -10 62 -20 78 -10 15 -15 27
-11 27 4 0 2 7 -5 15 -11 13 -15 84 -7 127 6 36 50 56 133 62 210 15 234 18
228 28 -10 15 63 0 93 -19 13 -8 47 -16 76 -17 73 -2 95 24 61 72 -9 13 -13
30 -10 39 9 22 -19 61 -46 65 -14 2 -24 12 -28 28 l-6 24 -15 -21 c-14 -21
-17 -21 -37 -7 -24 17 -29 43 -10 62 17 17 -8 24 -69 20 l-51 -4 -6 60 c-3 32
-5 61 -3 62 2 2 12 1 24 -2 16 -4 24 -18 31 -52 l11 -47 -2 55 c-1 30 2 56 7
57 5 0 13 8 18 17 5 9 21 16 36 16 36 0 100 18 108 31 11 19 -5 22 -43 7 -46
-19 -76 -17 -100 4 -17 15 -24 14 -98 -11 -44 -15 -108 -40 -142 -54 -72 -31
-74 -32 -67 -13 3 8 15 17 27 21 19 6 20 8 5 12 -20 5 -23 18 -8 28 7 4 8 24
4 53 -7 44 -6 46 10 32 16 -13 18 -12 16 15 -2 17 1 38 5 49 8 17 8 17 18 0 7
-13 7 -19 -3 -22 -10 -4 -10 -6 0 -12 16 -10 52 54 43 76 -3 9 2 14 13 15 11
0 14 3 7 6 -7 2 -13 9 -13 15 0 6 7 8 15 4 8 -3 15 -1 15 5 0 5 9 23 21 38 20
27 23 28 47 15 14 -7 29 -11 34 -8 4 3 17 0 28 -6 15 -8 20 -8 20 2 0 9 3 9
11 1 9 -9 17 -8 33 2 11 7 46 18 76 24 30 6 78 16 105 21 84 17 127 21 120 10
-3 -6 -12 -10 -19 -10 -17 0 -42 -29 -51 -60 -9 -31 -44 -70 -62 -70 -7 0 -13
-4 -13 -8 0 -5 -16 -17 -35 -28 -20 -10 -33 -24 -31 -29 2 -6 -7 -21 -20 -34
-29 -28 -23 -41 17 -41 16 0 29 -4 29 -10 0 -19 49 -10 74 13 24 23 84 43 240
81 88 22 238 35 400 36 144 0 161 -14 31 -25 -44 -4 -107 -10 -140 -14 -51 -7
-40 -9 72 -10 72 0 138 -4 147 -7 26 -10 9 -22 -42 -30 -26 -4 -59 -15 -74
-25 -14 -11 -32 -19 -39 -19 -50 0 -222 -144 -235 -197 -3 -12 -15 -25 -26
-28 -29 -10 -19 -41 12 -37 14 2 27 8 28 13 2 5 8 9 14 9 13 0 -10 -28 -33
-41 -13 -6 -25 -6 -37 2 -16 10 -24 8 -45 -7 -15 -10 -27 -26 -27 -35 0 -8 -5
-20 -11 -26 -7 -7 -3 -10 15 -10 15 0 26 5 26 13 0 8 -5 14 -12 14 -6 0 -9 2
-6 5 8 8 38 -6 38 -17 0 -29 -108 -88 -171 -94 -35 -4 -37 -2 -44 33 -6 33 -8
35 -19 21 -11 -15 -14 -15 -36 3 -14 10 -31 19 -37 19 -15 0 -17 -16 -3 -25 6
-3 10 -21 11 -38 0 -30 17 -84 18 -62 1 6 9 -3 20 -18 l18 -28 6 30 c4 17 11
31 17 31 5 0 9 -5 7 -11 -1 -7 23 -12 63 -14 36 -1 84 -8 108 -14 23 -7 47 -9
52 -6 6 4 24 -1 41 -9 17 -9 36 -13 42 -9 19 11 82 8 92 -5 6 -8 18 -10 28 -6
22 8 16 30 -7 28 -9 -1 -16 6 -17 15 0 10 -2 11 -6 4 -2 -7 -9 -13 -15 -13 -6
0 -7 7 -4 17 4 10 -1 23 -14 35 -11 10 -20 31 -20 47 0 27 7 36 89 106 l23 20
-6 -51 c-6 -38 -3 -62 12 -102 14 -35 16 -52 9 -53 -7 -1 2 -5 18 -9 56 -14
194 -11 246 6 55 18 82 11 31 -8 -18 -7 -32 -17 -32 -23 0 -17 -166 -23 -183
-6 -12 12 -67 0 -67 -15 0 -10 7 -13 25 -8 14 3 37 3 51 0 20 -5 23 -10 14
-21 -17 -20 4 -28 45 -16 19 5 43 8 52 6 10 -2 21 -4 26 -4 22 -2 2 -20 -29
-26 -22 -4 -33 -10 -28 -15 13 -13 77 6 145 42 58 30 159 118 159 137 0 14
-17 14 -25 1 -3 -5 -12 -10 -18 -10 -7 0 -1 9 13 20 14 11 30 18 37 15 15 -5
51 39 59 71 3 13 0 39 -6 59 -14 42 -2 67 23 47 11 -9 16 -7 25 14 7 14 9 36
6 50 -10 38 29 75 73 70 19 -3 41 -10 49 -17 8 -6 17 -9 21 -6 3 4 12 2 20 -5
24 -20 24 -2 -2 46 -29 55 -30 57 -10 50 21 -9 19 8 -6 35 -27 28 -22 33 22
21 46 -14 49 -13 49 11 0 16 5 20 20 16 13 -3 20 0 20 9 0 16 -31 34 -58 34
-11 0 -31 9 -45 20 -14 11 -34 20 -46 20 -13 0 -19 5 -15 14 3 8 -3 16 -16 19
-13 3 -19 10 -15 17 4 7 18 9 31 6 21 -6 24 -3 24 24 0 34 31 102 37 83 3 -7
-3 -27 -11 -45 -13 -25 -14 -33 -4 -40 25 -15 39 -8 54 27 8 19 18 35 22 35 4
0 13 9 20 21 12 18 11 23 -7 36 -17 11 -19 18 -11 34 14 25 30 24 30 -1 0 -11
-6 -20 -12 -20 -9 0 -8 -4 2 -10 19 -12 33 -13 26 -1 -7 11 39 61 57 61 8 0
21 -10 29 -22 16 -23 38 -18 38 10 0 14 8 17 48 14 26 -2 54 -10 63 -18z
m1553 -836 c-27 -171 -61 -304 -93 -366 -18 -34 -77 -91 -125 -119 -39 -23
-41 -13 -3 18 20 17 37 34 37 39 0 4 17 37 38 71 43 71 68 129 87 204 15 55
55 294 55 325 0 10 5 31 12 47 l12 28 4 -42 c2 -22 -9 -115 -24 -205z m-444
-76 c0 -13 2 -13 14 4 14 19 15 19 33 -1 23 -24 31 -109 22 -207 -3 -28 3 -51
16 -60 5 -4 1 -16 -10 -28 -23 -25 -29 -55 -15 -79 8 -15 3 -20 -28 -29 -82
-24 -208 -35 -326 -29 -191 10 -283 43 -434 153 -37 27 -34 10 6 -32 39 -42
133 -104 157 -104 7 0 16 -4 19 -9 3 -5 20 -11 38 -14 18 -4 58 -11 88 -16 30
-5 129 -10 220 -11 132 -2 156 -4 120 -12 -77 -16 -394 -3 -470 20 -44 13 -66
24 -68 36 -2 11 -9 15 -19 12 -21 -8 -51 10 -105 65 -45 45 -61 79 -38 79 6 0
10 7 10 15 0 9 7 18 15 21 11 5 12 11 4 25 -11 22 -59 169 -59 182 0 5 7 6 15
3 8 -3 22 -9 30 -12 9 -4 15 0 15 9 0 11 7 13 23 10 34 -9 48 -24 42 -44 -5
-15 -1 -19 15 -19 16 0 20 -4 15 -19 -4 -14 0 -20 17 -25 40 -10 58 -7 58 12
0 13 2 14 9 4 8 -13 12 -13 196 2 22 2 62 10 88 20 26 9 56 16 67 16 10 0 22
5 25 11 4 5 19 15 33 21 37 15 41 16 92 27 24 5 46 14 48 20 5 16 22 3 22 -17z
m-3795 -468 c32 -21 38 -71 11 -86 -22 -12 -12 -131 14 -172 12 -20 26 -36 31
-36 5 0 9 -6 9 -12 0 -7 4 -19 9 -27 7 -11 14 -10 40 8 17 12 31 29 31 37 0
28 33 53 63 47 15 -3 27 -9 27 -12 0 -4 29 -39 65 -77 36 -38 65 -75 65 -81 0
-7 4 -13 9 -13 21 0 -3 -37 -30 -47 -27 -11 -29 -14 -17 -32 7 -12 19 -21 26
-21 8 0 29 -7 48 -16 29 -14 34 -21 34 -51 0 -19 7 -47 15 -63 8 -16 18 -67
21 -114 8 -97 0 -119 -61 -156 -31 -19 -46 -22 -98 -17 -34 3 -75 12 -90 20
-39 21 -94 83 -122 137 -13 25 -36 62 -51 82 -16 20 -42 56 -59 79 -40 57
-154 199 -179 225 -12 11 -37 39 -56 63 -19 24 -45 55 -58 70 -35 40 -62 103
-56 128 6 22 7 22 37 5 38 -20 49 -31 66 -57 12 -19 12 -18 6 5 -18 74 -18 90
0 96 24 10 38 -12 75 -110 16 -45 44 -108 61 -141 18 -33 47 -89 66 -125 56
-107 95 -158 138 -180 71 -36 129 4 98 68 l-15 31 -35 -24 c-20 -13 -43 -21
-52 -18 -34 13 -89 80 -111 138 -43 114 -92 309 -95 381 -3 63 -1 71 18 81 27
14 69 9 102 -13z m5890 -1104 c12 10 15 10 16 -1 0 -8 2 -9 5 -4 5 12 163 9
243 -5 167 -28 232 -42 253 -53 53 -28 148 -99 158 -117 6 -11 17 -20 24 -20
8 0 21 -11 30 -25 9 -14 23 -25 32 -25 8 0 17 -7 20 -15 4 -8 11 -15 18 -15
13 0 52 -82 78 -165 43 -140 56 -244 63 -502 3 -138 2 -253 -2 -256 -13 -8 -4
-239 10 -253 3 -3 3 -20 0 -38 -6 -28 -5 -30 10 -17 9 7 17 11 17 7 0 -27
-228 -438 -239 -431 -16 9 -73 139 -190 430 -67 167 -126 300 -133 300 -7 0
-19 14 -27 30 -33 68 -133 384 -138 435 -7 74 -58 216 -94 262 -28 35 -180
406 -194 473 -6 28 -5 29 9 11 13 -16 18 -17 31 -6z m-6841 -978 c2 -4 1 -14
-3 -21 -5 -7 -1 -28 9 -49 27 -56 83 -211 135 -372 68 -211 81 -253 115 -375
17 -60 38 -127 47 -148 9 -20 13 -40 10 -44 -4 -3 -9 3 -13 13 -3 10 -10 28
-14 39 -5 11 -16 43 -23 70 -8 28 -25 75 -37 105 -12 30 -35 91 -51 135 -16
44 -40 112 -54 150 -14 39 -37 103 -51 144 -13 41 -36 92 -49 115 -13 23 -35
72 -49 110 -23 66 -25 96 -4 96 5 0 6 5 3 10 -7 12 2 30 15 30 5 0 11 -4 14
-8z m232 -532 c125 -387 204 -623 214 -635 15 -20 49 -105 41 -105 -8 0 -40
68 -92 194 -37 89 -147 413 -198 586 -22 74 -52 171 -65 215 -16 52 -20 73
-10 60 8 -11 57 -152 110 -315z m-8 243 c11 -27 27 -73 37 -103 10 -30 41
-120 70 -200 65 -181 86 -248 123 -380 40 -143 45 -167 34 -155 -12 13 -215
607 -297 873 -3 6 -1 12 4 12 5 0 18 -21 29 -47z m-218 -73 c-12 -17 -72 -75
-134 -130 -128 -112 -165 -155 -201 -231 -22 -48 -25 -67 -25 -179 -1 -216
-31 -303 -188 -547 -51 -78 -102 -164 -113 -190 -15 -36 -22 -44 -29 -33 -13
20 -13 43 0 35 6 -3 10 -2 10 4 0 5 3 17 7 27 5 12 3 15 -6 9 -36 -22 24 92
144 275 150 228 170 284 161 449 -8 141 3 204 47 262 18 22 100 101 182 174
111 98 152 128 158 118 5 -8 0 -25 -13 -43z m2760 -10 c0 -5 10 -15 23 -21 18
-9 20 -9 10 2 -19 19 -16 29 7 29 11 0 20 -7 20 -15 0 -17 16 -20 25 -5 4 6
11 8 16 4 5 -3 7 -10 4 -15 -4 -5 -2 -9 4 -9 5 0 16 -7 25 -15 11 -11 21 -13
40 -5 21 8 24 7 19 -8 -4 -9 -11 -20 -17 -24 -7 -5 -7 -8 2 -8 7 0 15 7 19 16
7 18 41 13 107 -16 26 -12 59 -18 89 -16 37 2 47 -1 47 -13 0 -17 47 -44 61
-35 5 3 19 -5 31 -16 13 -12 35 -24 49 -27 14 -2 40 -18 57 -34 17 -16 40 -29
51 -29 11 0 23 -5 27 -11 3 -6 15 -9 25 -6 16 4 19 0 19 -26 1 -29 2 -30 14
-14 13 17 15 15 21 -21 5 -32 0 -52 -24 -104 -17 -36 -31 -67 -31 -71 0 -5
-60 -137 -113 -251 l-24 -50 -14 30 c-31 60 -83 150 -112 194 -30 44 -155 210
-167 220 -3 3 -36 43 -75 90 -38 47 -78 94 -89 106 -62 62 -89 94 -83 100 3 3
20 -9 36 -27 41 -44 40 -30 -1 16 -18 22 -34 32 -38 26 -4 -7 -20 2 -43 22
-37 33 -45 47 -27 47 6 0 10 -4 10 -10z m-1281 -116 c33 -97 61 -195 87 -309
31 -140 43 -555 25 -870 -6 -88 -12 -268 -15 -399 -3 -131 -11 -291 -16 -355
-10 -102 -104 -720 -114 -746 -3 -5 -5 10 -6 35 -3 56 -5 46 -29 -110 -22
-141 -26 -114 -10 59 12 133 32 267 59 396 39 185 59 396 72 760 16 441 16
1065 0 1195 -13 109 -50 256 -93 373 -16 44 -29 82 -29 84 0 2 8 -1 18 -6 11
-6 31 -49 51 -107z m-60 -41 c78 -214 95 -465 78 -1153 -18 -720 -35 -934 -88
-1120 -11 -41 -38 -192 -59 -335 -21 -145 -38 -238 -39 -210 -1 86 46 415 78
541 51 202 60 300 77 874 16 537 14 954 -6 1139 -10 89 -53 260 -85 338 -8 19
-15 41 -15 47 1 18 28 -38 59 -121z m-70 0 c82 -223 92 -461 65 -1578 -9 -415
-27 -567 -87 -776 -14 -47 -35 -155 -47 -240 -23 -168 -44 -242 -34 -124 6 86
33 289 40 313 5 15 5 16 -5 0 -6 -9 -23 -90 -38 -180 -20 -117 -29 -151 -31
-121 -4 50 30 241 58 333 72 232 87 439 94 1285 5 606 -1 761 -39 987 -38 226
-32 253 24 101z m-1281 45 c3 -18 -62 -100 -141 -176 -93 -90 -184 -224 -209
-307 -4 -16 -13 -86 -19 -153 -20 -248 -58 -359 -186 -539 -76 -107 -121 -188
-122 -219 -1 -36 -38 -163 -55 -189 -9 -13 -16 -35 -16 -48 0 -44 -241 -397
-270 -397 -12 0 -20 7 -20 17 0 9 48 88 108 175 121 179 117 173 170 288 39
85 52 125 72 232 9 46 30 86 109 205 104 157 162 273 179 363 6 30 14 107 18
170 8 148 24 206 79 291 46 71 272 309 290 305 6 -2 11 -9 13 -18z m7698 -335
c-20 -37 -36 -73 -36 -80 0 -7 -5 -13 -11 -13 -6 0 -9 -7 -5 -15 3 -8 1 -15
-5 -15 -6 0 -8 -9 -4 -21 4 -12 3 -19 -2 -16 -5 3 -7 -7 -5 -24 2 -16 8 -29
13 -29 5 0 9 -11 9 -25 0 -29 8 -32 26 -7 10 13 10 6 -2 -29 -8 -25 -24 -56
-35 -68 -28 -29 -51 -15 -78 50 l-22 51 54 97 c109 193 132 230 135 221 2 -5
-13 -40 -32 -77z m-3717 -673 c13 -111 14 -507 1 -515 -6 -4 -8 -11 -5 -16 4
-5 0 -9 -8 -9 -11 0 -15 45 -22 243 -4 133 -9 278 -11 322 -1 44 0 130 4 190
l6 110 13 -120 c6 -66 17 -158 22 -205z m-4749 -291 c-6 -30 -35 -104 -65
-164 -30 -61 -55 -115 -55 -122 0 -6 -22 -40 -48 -75 -26 -35 -86 -120 -132
-190 -67 -101 -90 -128 -107 -128 -34 0 -29 29 16 82 21 26 51 69 67 95 15 27
55 84 89 129 63 82 88 128 120 219 29 83 107 227 116 218 5 -5 5 -32 -1 -64z
m-442 -700 c99 -24 256 -82 303 -113 21 -14 41 -26 45 -26 3 0 17 -9 31 -20
29 -22 26 -25 -11 -10 -36 13 -33 4 4 -15 17 -9 28 -20 25 -26 -10 -16 5 -49
23 -49 10 -1 27 -20 41 -50 16 -32 32 -50 47 -54 17 -5 24 -13 24 -32 0 -21 3
-24 21 -19 13 4 19 3 16 -2 -4 -6 5 -25 18 -43 14 -19 22 -36 19 -39 -3 -3
-12 3 -21 14 -14 19 -14 18 -8 -15 4 -19 12 -41 17 -47 6 -7 8 -19 5 -27 -3
-8 1 -20 9 -26 8 -7 14 -19 14 -26 0 -8 5 -14 10 -14 6 0 10 -9 10 -20 0 -23
15 -27 24 -5 3 8 11 15 18 14 10 0 10 -2 1 -6 -18 -7 -16 -39 4 -58 14 -14 14
-18 2 -25 -11 -7 -11 -12 -1 -22 16 -16 16 -48 0 -48 -9 0 -10 -2 -2 -8 19
-12 4 -72 -20 -82 -17 -7 -18 -9 -5 -14 8 -4 29 0 45 9 35 18 54 20 31 3 -11
-9 -17 -29 -18 -59 -2 -56 6 -73 30 -60 28 15 38 0 37 -62 -1 -42 -4 -56 -13
-52 -7 3 -20 8 -28 11 -11 5 -15 -1 -15 -22 1 -25 2 -26 11 -11 5 9 14 17 18
17 11 0 24 -62 25 -115 1 -33 5 -41 23 -43 24 -4 21 -32 -3 -32 -15 0 -19 -22
-7 -34 4 -4 8 -17 8 -29 0 -13 9 -26 23 -32 15 -6 21 -16 19 -27 -3 -10 1 -22
9 -29 18 -15 18 -28 -3 -51 -15 -17 -15 -18 5 -18 25 0 27 -11 10 -41 -8 -14
-9 -23 -3 -25 6 -2 9 -26 8 -54 -1 -27 2 -50 7 -50 5 0 16 -12 24 -27 11 -23
11 -30 1 -40 -7 -6 -16 -9 -19 -6 -3 4 -6 -1 -6 -9 0 -9 5 -18 10 -20 6 -2 12
-13 13 -26 1 -16 8 -22 24 -22 18 0 23 -6 23 -25 0 -13 -8 -29 -17 -34 -16 -9
-16 -10 3 -11 17 0 23 -8 28 -41 5 -30 10 -39 21 -35 8 3 15 1 15 -4 0 -12
-12 -13 -43 -1 -20 8 -24 6 -23 -6 0 -9 -5 -18 -11 -20 -8 -3 -13 4 -13 18 0
21 -1 21 -20 4 -28 -26 -11 -48 49 -65 28 -7 51 -17 51 -22 0 -5 7 -11 16 -15
22 -8 74 -60 74 -73 0 -6 7 -13 15 -16 17 -7 21 -64 5 -64 -5 0 -10 5 -10 10
0 6 -5 10 -11 10 -6 0 -9 -8 -7 -17 2 -11 11 -17 22 -15 14 3 17 -1 13 -12 -7
-17 28 -56 48 -56 7 0 24 -11 39 -25 15 -14 33 -25 39 -25 12 0 14 -21 9 -88
-1 -13 -6 -21 -10 -18 -5 3 -14 -15 -20 -40 -7 -24 -16 -44 -22 -44 -5 0 -10
-9 -10 -19 0 -11 -4 -22 -10 -26 -5 -3 -7 -12 -4 -19 3 -8 -4 -33 -15 -57 -11
-24 -34 -84 -51 -134 -17 -49 -34 -97 -39 -106 -5 -9 -5 -22 0 -30 14 -23 10
-31 -13 -27 -16 2 -25 13 -32 38 -6 19 -17 40 -24 46 -10 7 -12 13 -4 18 7 4
4 20 -11 48 -17 32 -19 42 -8 46 11 4 11 6 0 14 -11 8 -11 11 -1 15 10 4 10 8
1 19 -6 7 -9 21 -5 29 3 9 0 15 -8 15 -7 0 -25 9 -39 21 l-26 20 -31 -22 c-16
-13 -30 -30 -31 -38 0 -10 -4 -6 -10 8 -8 20 -11 22 -27 10 -9 -8 -20 -18 -24
-24 -4 -6 -13 -2 -21 9 -11 15 -22 18 -53 13 -21 -4 -40 -11 -42 -17 -2 -5
-15 -10 -28 -10 -18 0 -24 -5 -24 -21 0 -14 -5 -19 -13 -16 -8 3 -27 -6 -42
-19 -27 -23 -61 -30 -137 -27 -16 1 -28 -3 -28 -8 0 -17 -71 -81 -84 -76 -21
8 -14 -30 9 -49 17 -13 15 -13 -10 1 -148 87 -375 317 -477 485 -12 19 -18 32
-13 27 5 -4 17 0 27 10 10 9 18 13 18 9 0 -3 13 0 30 9 16 8 37 15 47 15 12 0
23 12 30 31 7 17 16 28 21 25 5 -3 14 5 20 18 6 13 24 30 41 37 43 19 69 69
53 103 -11 24 -10 26 13 26 18 0 23 -4 19 -15 -4 -9 0 -15 8 -15 24 0 15 45
-10 48 -13 2 -22 11 -22 21 0 9 -4 21 -9 27 -6 5 -12 30 -14 55 -2 25 -8 52
-12 59 -6 10 -2 12 18 8 24 -5 25 -3 14 16 -6 12 -10 24 -9 28 1 5 -14 18 -33
30 -25 17 -33 28 -29 42 4 10 2 16 -2 13 -5 -3 -10 16 -10 41 -1 33 1 41 6 27
7 -17 9 -17 9 -2 1 9 7 17 14 18 6 0 3 4 -8 9 -29 12 -35 12 -35 -4 0 -8 -7
-16 -15 -20 -8 -3 -15 -2 -15 3 0 5 7 14 15 21 17 14 20 40 5 40 -5 0 -10 -7
-10 -16 0 -8 -5 -12 -11 -8 -6 3 -8 15 -6 26 3 11 1 32 -4 46 -8 20 -7 29 4
37 7 5 19 21 27 34 11 21 10 23 -4 18 -15 -6 -20 3 -17 31 3 18 -31 72 -41 65
-5 -3 -18 3 -28 12 -17 15 -19 15 -29 -2 -10 -17 -10 -17 -11 2 0 11 -7 33
-15 49 -20 37 -19 56 3 57 11 0 8 5 -11 13 -29 13 -57 55 -57 87 0 12 -5 16
-15 13 -11 -5 -15 1 -15 25 0 24 -6 34 -22 40 -20 8 -21 10 -5 16 19 8 24 47
5 44 -33 -4 -36 2 -32 58 2 31 0 61 -4 67 -5 6 -9 25 -10 41 -1 17 -8 35 -15
40 -7 6 -14 28 -15 49 -2 21 -7 47 -12 56 -5 10 -8 19 -6 21 3 2 6 25 8 52 3
33 1 47 -8 47 -13 0 -13 117 1 159 3 11 3 26 -1 33 -6 9 -10 5 -15 -12 l-7
-25 -1 28 c-1 24 2 27 33 27 l34 0 -3 57 c-3 43 0 62 13 76 13 15 14 20 3 26
-8 5 -10 14 -7 20 4 6 12 9 17 6 15 -10 10 14 -8 42 -10 15 -12 24 -5 20 7 -5
12 -3 12 7 0 9 -4 16 -10 16 -5 0 -10 9 -10 21 0 11 4 18 8 15 5 -3 9 8 10 25
1 37 10 49 21 30 7 -11 11 -9 20 7 6 12 10 27 9 34 -2 8 6 13 19 12 17 0 27
10 42 46 l20 47 61 2 c33 0 82 -4 108 -10z m6842 -410 c0 -5 18 -9 40 -9 39 0
39 -1 34 -30 -6 -29 9 -44 19 -17 3 8 7 5 12 -7 6 -13 3 -23 -11 -33 -16 -11
-17 -17 -6 -33 10 -17 10 -20 -3 -20 -8 0 -15 4 -15 8 0 14 -73 -1 -78 -16 -2
-7 5 -12 16 -12 11 0 28 -3 38 -7 13 -5 15 -3 9 8 -5 8 -4 11 0 6 16 -14 14
-40 -2 -53 -15 -10 -14 -12 5 -18 12 -4 22 -12 22 -17 0 -6 -4 -7 -10 -4 -5 3
-10 -3 -10 -14 0 -16 -6 -21 -24 -21 -14 0 -28 -4 -31 -10 -3 -5 -11 -10 -17
-10 -7 0 -7 4 0 13 7 8 6 16 -3 24 -11 10 -14 8 -17 -14 -5 -47 -27 -39 -23 9
2 24 4 48 5 53 0 6 6 2 14 -7 14 -19 66 -42 74 -33 3 3 0 5 -7 5 -7 0 -9 5 -6
10 3 6 -4 10 -17 10 -29 0 -59 57 -37 70 11 7 11 13 -1 34 -16 31 -40 34 -47
6 -6 -24 -10 -25 -29 -5 -13 13 -13 17 -2 28 7 8 20 16 28 20 12 4 11 6 -2 6
-10 1 -18 8 -18 17 0 11 5 14 18 9 45 -19 54 -19 48 2 -6 19 -3 20 44 15 33
-3 50 -1 50 7 0 6 -17 11 -40 11 -22 0 -40 2 -40 4 0 2 -3 12 -6 20 -5 12 -2
15 10 10 9 -3 16 -10 16 -15z m-2427 -148 c47 -47 56 -149 18 -200 -40 -53
-140 -57 -189 -8 -51 52 -36 191 25 230 40 26 109 15 146 -22z m2367 -36 c0
-21 -37 -57 -44 -42 -2 7 -5 2 -5 -11 -1 -12 5 -31 11 -42 10 -16 10 -24 0
-40 -16 -26 -15 -31 3 -24 17 7 21 -11 5 -21 -5 -3 -10 -18 -9 -33 l1 -27 7
25 c4 15 15 26 29 28 19 3 18 -2 -17 -55 -49 -73 -71 -147 -71 -237 0 -72 23
-154 47 -169 7 -5 11 -13 7 -18 -8 -14 -31 20 -50 73 -19 54 -36 186 -26 202
12 19 8 116 -5 116 -8 0 -10 7 -6 17 4 11 8 12 11 5 2 -7 17 -12 33 -12 18 0
28 4 24 10 -4 6 -10 8 -15 5 -4 -3 -13 2 -20 10 -7 8 -19 15 -26 15 -8 0 -14
8 -14 18 0 10 -5 23 -12 30 -9 9 -8 12 5 12 9 0 17 -8 17 -17 1 -14 4 -12 14
7 13 22 12 27 -12 49 -17 16 -22 26 -14 29 6 2 12 10 12 18 0 8 8 14 18 14 16
1 16 1 0 14 -24 18 -22 26 6 26 13 0 29 7 36 15 7 8 16 12 21 9 5 -3 9 0 9 5
0 6 7 11 15 11 8 0 15 -7 15 -15z m-2612 -1458 c52 -48 67 -120 37 -177 -18
-34 -56 -45 -130 -35 -46 5 -54 10 -63 33 -28 75 -19 147 24 187 20 19 33 22
67 18 24 -2 52 -14 65 -26z m-2828 -437 c0 -5 7 -10 15 -10 9 0 12 -6 9 -15
-4 -8 -2 -15 4 -15 5 0 13 -11 16 -25 4 -14 11 -25 16 -25 6 0 10 -4 10 -9 0
-5 5 -22 12 -38 6 -15 10 -38 9 -51 -2 -16 4 -25 18 -29 12 -3 21 -9 21 -13 0
-4 9 -10 20 -13 11 -3 20 -12 20 -21 0 -9 7 -16 15 -16 16 0 19 -8 16 -60 -3
-54 30 -96 96 -126 71 -33 138 -82 152 -111 9 -19 7 -25 -13 -38 -13 -9 -26
-25 -29 -35 -3 -12 -14 -20 -25 -20 -11 0 -24 -6 -30 -12 -19 -24 -169 -8
-179 18 -3 8 -9 11 -14 8 -5 -3 -18 5 -29 18 -11 13 -19 19 -20 14 0 -18 -60
58 -60 76 0 10 -4 18 -10 18 -5 0 -10 7 -10 15 0 8 -6 15 -14 15 -17 0 -92 77
-88 91 1 5 -7 9 -19 9 -12 0 -23 8 -26 20 -3 11 -13 20 -23 20 -29 0 -28 29 2
140 31 114 73 210 92 210 8 0 11 11 8 31 l-5 32 22 -22 c11 -11 21 -25 21 -31z"/>
<path d="M5097 8972 c-15 -15 -53 -36 -84 -47 -32 -10 -62 -22 -67 -27 -6 -4
-17 -8 -25 -8 -9 0 -29 -9 -46 -21 l-30 -20 89 4 c73 3 89 1 94 -12 3 -9 13
-26 23 -39 l18 -23 7 48 c3 26 17 75 30 107 13 33 23 61 21 63 -2 1 -15 -10
-30 -25z"/>
<path d="M5160 3755 c0 -11 -6 -14 -25 -9 -15 4 -25 2 -25 -5 0 -6 -9 -11 -19
-11 -38 0 -37 -117 2 -122 7 0 19 -2 27 -2 9 -1 14 -9 12 -20 -2 -10 0 -16 5
-14 68 32 82 56 67 121 -6 30 -7 31 -15 10 -5 -13 -13 -23 -19 -23 -13 0 -13
36 0 60 7 13 7 21 0 25 -5 3 -10 -1 -10 -10z"/>
<path d="M4877 2266 c-19 -7 -30 -20 -37 -45 -15 -54 -12 -75 13 -99 20 -19
26 -20 60 -8 48 16 54 24 32 40 -12 9 -15 15 -7 20 7 4 12 1 12 -6 0 -8 5 -6
11 5 8 13 7 27 -1 47 -10 24 -17 29 -41 26 -34 -4 -38 1 -7 13 15 5 17 9 7 13
-8 2 -26 0 -42 -6z"/>
</g>
</svg>
